<svg width="290" height="180" viewBox="0 0 290 180" fill="none" xmlns="http://www.w3.org/2000/svg">
<rect width="290" height="180" rx="10" fill="#618D66"/>
<rect x="68" y="38" width="154" height="54" rx="2" fill="#D9D9D9"/>
<rect x="38.5" y="152.5" width="23" height="23" rx="1.5" transform="rotate(-90 38.5 152.5)" stroke="white"/>
<path d="M57 141.777H45.3239L49.8267 146.265L48.733 147.373L42.3693 140.996L48.733 134.632L49.8267 135.711L45.3239 140.214H57V141.777Z" fill="white"/>
<rect x="121.5" y="129.5" width="23" height="23" rx="1.5" transform="rotate(90 121.5 129.5)" stroke="white"/>
<path d="M103 140.223H114.676L110.173 135.735L111.267 134.627L117.631 141.004L111.267 147.368L110.173 146.289L114.676 141.786H103V140.223Z" fill="white"/>
<rect x="68.5" y="112.5" width="23" height="23" rx="1.5" stroke="white"/>
<path d="M79.2232 131V119.324L74.7346 123.827L73.6266 122.733L80.0044 116.369L86.3681 122.733L85.2885 123.827L80.7857 119.324V131H79.2232Z" fill="white"/>
<rect x="91.5" y="168.5" width="23" height="23" rx="1.5" transform="rotate(-180 91.5 168.5)" stroke="white"/>
<path d="M80.7768 150V161.676L85.2654 157.173L86.3734 158.267L79.9956 164.631L73.6319 158.267L74.7115 157.173L79.2143 161.676V150H80.7768Z" fill="white"/>
<rect x="168.5" y="151.5" width="23" height="23" rx="1.5" transform="rotate(-90 168.5 151.5)" stroke="white"/>
<path d="M187 140.777H175.324L179.827 145.265L178.733 146.373L172.369 139.996L178.733 133.632L179.827 134.711L175.324 139.214H187V140.777Z" fill="white"/>
<path d="M172.5 133.5V146.5" stroke="white"/>
<rect x="133.5" y="112.5" width="23" height="23" rx="1.5" fill="#46DA00" stroke="white"/>
<path d="M143.644 123.047C143.614 122.943 143.572 122.852 143.518 122.772C143.464 122.691 143.398 122.623 143.32 122.567C143.243 122.511 143.155 122.467 143.056 122.438C142.958 122.408 142.849 122.393 142.73 122.393C142.507 122.393 142.311 122.448 142.142 122.559C141.974 122.67 141.843 122.831 141.75 123.043C141.656 123.253 141.609 123.51 141.609 123.814C141.609 124.118 141.655 124.376 141.748 124.589C141.84 124.803 141.971 124.965 142.14 125.077C142.309 125.188 142.508 125.244 142.738 125.244C142.947 125.244 143.125 125.207 143.273 125.133C143.422 125.058 143.536 124.952 143.614 124.815C143.694 124.679 143.733 124.518 143.733 124.332L143.921 124.359H142.796V123.665H144.622V124.214C144.622 124.598 144.541 124.928 144.379 125.203C144.217 125.477 143.994 125.689 143.71 125.838C143.426 125.986 143.1 126.06 142.734 126.06C142.325 126.06 141.966 125.969 141.656 125.789C141.346 125.607 141.105 125.349 140.931 125.016C140.76 124.68 140.674 124.283 140.674 123.822C140.674 123.469 140.725 123.153 140.827 122.876C140.931 122.598 141.076 122.362 141.262 122.169C141.448 121.976 141.664 121.829 141.912 121.728C142.159 121.627 142.426 121.577 142.715 121.577C142.962 121.577 143.192 121.613 143.405 121.685C143.618 121.756 143.807 121.857 143.972 121.988C144.138 122.119 144.274 122.274 144.379 122.455C144.484 122.634 144.551 122.831 144.581 123.047H143.644ZM149.325 123.818C149.325 124.294 149.235 124.699 149.054 125.033C148.875 125.366 148.631 125.621 148.321 125.798C148.013 125.972 147.666 126.06 147.281 126.06C146.894 126.06 146.546 125.972 146.237 125.795C145.929 125.619 145.686 125.364 145.507 125.031C145.328 124.697 145.238 124.293 145.238 123.818C145.238 123.342 145.328 122.938 145.507 122.604C145.686 122.27 145.929 122.016 146.237 121.841C146.546 121.665 146.894 121.577 147.281 121.577C147.666 121.577 148.013 121.665 148.321 121.841C148.631 122.016 148.875 122.27 149.054 122.604C149.235 122.938 149.325 123.342 149.325 123.818ZM148.389 123.818C148.389 123.51 148.343 123.25 148.251 123.038C148.16 122.827 148.031 122.666 147.865 122.557C147.699 122.447 147.504 122.393 147.281 122.393C147.058 122.393 146.864 122.447 146.698 122.557C146.531 122.666 146.402 122.827 146.31 123.038C146.219 123.25 146.173 123.51 146.173 123.818C146.173 124.126 146.219 124.386 146.31 124.598C146.402 124.81 146.531 124.97 146.698 125.08C146.864 125.189 147.058 125.244 147.281 125.244C147.504 125.244 147.699 125.189 147.865 125.08C148.031 124.97 148.16 124.81 148.251 124.598C148.343 124.386 148.389 124.126 148.389 123.818Z" fill="white"/>
<rect x="133.5" y="145.5" width="23" height="23" rx="1.5" fill="#FF0000" stroke="white"/>
<path d="M139.587 155.891C139.57 155.719 139.497 155.586 139.368 155.491C139.239 155.396 139.063 155.348 138.842 155.348C138.691 155.348 138.564 155.369 138.46 155.412C138.356 155.453 138.277 155.511 138.222 155.585C138.168 155.658 138.141 155.742 138.141 155.836C138.138 155.914 138.154 155.982 138.19 156.04C138.226 156.099 138.277 156.149 138.341 156.192C138.405 156.233 138.479 156.269 138.562 156.3C138.646 156.33 138.736 156.356 138.831 156.377L139.223 156.471C139.413 156.513 139.588 156.57 139.747 156.641C139.906 156.712 140.044 156.8 140.16 156.903C140.277 157.007 140.367 157.129 140.431 157.27C140.496 157.411 140.53 157.572 140.531 157.754C140.53 158.021 140.462 158.252 140.327 158.448C140.193 158.643 140 158.794 139.747 158.902C139.496 159.009 139.192 159.062 138.837 159.062C138.485 159.062 138.178 159.008 137.917 158.9C137.657 158.792 137.454 158.632 137.307 158.42C137.163 158.207 137.087 157.944 137.079 157.63H137.972C137.982 157.776 138.024 157.898 138.098 157.996C138.173 158.093 138.273 158.166 138.398 158.216C138.525 158.264 138.668 158.288 138.827 158.288C138.983 158.288 139.119 158.266 139.234 158.22C139.35 158.175 139.44 158.112 139.504 158.031C139.568 157.95 139.6 157.857 139.6 157.751C139.6 157.653 139.571 157.571 139.513 157.504C139.456 157.437 139.372 157.381 139.261 157.334C139.152 157.287 139.018 157.244 138.859 157.206L138.383 157.087C138.016 156.997 137.725 156.857 137.512 156.667C137.299 156.477 137.193 156.22 137.195 155.898C137.193 155.634 137.263 155.403 137.405 155.205C137.549 155.008 137.746 154.854 137.996 154.743C138.246 154.632 138.53 154.577 138.848 154.577C139.172 154.577 139.454 154.632 139.696 154.743C139.939 154.854 140.128 155.008 140.263 155.205C140.398 155.403 140.467 155.631 140.472 155.891H139.587ZM140.986 155.397V154.636H144.569V155.397H143.233V159H142.321V155.397H140.986ZM148.97 156.818C148.97 157.294 148.88 157.699 148.7 158.033C148.521 158.366 148.276 158.621 147.967 158.798C147.658 158.972 147.312 159.06 146.927 159.06C146.539 159.06 146.191 158.972 145.883 158.795C145.575 158.619 145.331 158.364 145.152 158.031C144.973 157.697 144.884 157.293 144.884 156.818C144.884 156.342 144.973 155.938 145.152 155.604C145.331 155.27 145.575 155.016 145.883 154.841C146.191 154.665 146.539 154.577 146.927 154.577C147.312 154.577 147.658 154.665 147.967 154.841C148.276 155.016 148.521 155.27 148.7 155.604C148.88 155.938 148.97 156.342 148.97 156.818ZM148.035 156.818C148.035 156.51 147.989 156.25 147.896 156.038C147.805 155.827 147.677 155.666 147.511 155.557C147.345 155.447 147.15 155.393 146.927 155.393C146.704 155.393 146.509 155.447 146.343 155.557C146.177 155.666 146.048 155.827 145.955 156.038C145.864 156.25 145.819 156.51 145.819 156.818C145.819 157.126 145.864 157.386 145.955 157.598C146.048 157.81 146.177 157.97 146.343 158.08C146.509 158.189 146.704 158.244 146.927 158.244C147.15 158.244 147.345 158.189 147.511 158.08C147.677 157.97 147.805 157.81 147.896 157.598C147.989 157.386 148.035 157.126 148.035 156.818ZM149.654 159V154.636H151.375C151.706 154.636 151.988 154.7 152.221 154.826C152.454 154.951 152.632 155.125 152.754 155.348C152.877 155.57 152.939 155.825 152.939 156.115C152.939 156.405 152.877 156.661 152.752 156.882C152.627 157.104 152.446 157.276 152.208 157.4C151.973 157.523 151.687 157.585 151.352 157.585H150.255V156.846H151.203C151.38 156.846 151.527 156.815 151.642 156.754C151.758 156.692 151.845 156.606 151.902 156.496C151.96 156.386 151.989 156.259 151.989 156.115C151.989 155.97 151.96 155.844 151.902 155.736C151.845 155.626 151.758 155.542 151.642 155.482C151.525 155.421 151.377 155.391 151.198 155.391H150.576V159H149.654Z" fill="white"/>
<rect x="221.5" y="168.5" width="23" height="23" rx="1.5" transform="rotate(-180 221.5 168.5)" stroke="white"/>
<path d="M210.777 150V161.676L215.265 157.173L216.373 158.267L209.996 164.631L203.632 158.267L204.711 157.173L209.214 161.676V150H210.777Z" fill="white"/>
<path d="M203.5 164.5H216.5" stroke="white"/>
<rect x="251.5" y="128.5" width="23" height="23" rx="1.5" transform="rotate(90 251.5 128.5)" stroke="white"/>
<path d="M233 139.223H244.676L240.173 134.735L241.267 133.627L247.631 140.004L241.267 146.368L240.173 145.289L244.676 140.786H233V139.223Z" fill="white"/>
<path d="M247.5 146.5V133.5" stroke="white"/>
<rect x="198.5" y="112.5" width="23" height="23" rx="1.5" stroke="white"/>
<path d="M209.223 131V119.324L204.735 123.827L203.627 122.733L210.004 116.369L216.368 122.733L215.289 123.827L210.786 119.324V131H209.223Z" fill="white"/>
<path d="M216.5 116.5H203.5" stroke="white"/>
<rect x="228.5" y="8.5" width="23" height="23" rx="1.5" stroke="white"/>
<path d="M233.292 22H231.745V17.6364H233.305C233.744 17.6364 234.122 17.7237 234.439 17.8984C234.755 18.0717 234.999 18.321 235.169 18.6463C235.341 18.9716 235.427 19.3608 235.427 19.8139C235.427 20.2685 235.341 20.6591 235.169 20.9858C234.999 21.3125 234.754 21.5632 234.434 21.7379C234.116 21.9126 233.736 22 233.292 22ZM232.668 21.2095H233.254C233.527 21.2095 233.756 21.1612 233.942 21.0646C234.13 20.9666 234.27 20.8153 234.364 20.6108C234.459 20.4048 234.507 20.1392 234.507 19.8139C234.507 19.4915 234.459 19.228 234.364 19.0234C234.27 18.8189 234.13 18.6683 233.944 18.5717C233.758 18.4751 233.529 18.4268 233.256 18.4268H232.668V21.2095ZM237.033 17.6364V22H236.111V17.6364H237.033ZM240.16 18.8913C240.142 18.7195 240.069 18.5859 239.94 18.4908C239.811 18.3956 239.635 18.348 239.414 18.348C239.263 18.348 239.136 18.3693 239.032 18.4119C238.929 18.4531 238.849 18.5107 238.794 18.5845C238.74 18.6584 238.713 18.7422 238.713 18.8359C238.71 18.9141 238.726 18.9822 238.762 19.0405C238.799 19.0987 238.849 19.1491 238.913 19.1918C238.977 19.233 239.051 19.2692 239.135 19.3004C239.218 19.3303 239.308 19.3558 239.403 19.3771L239.795 19.4709C239.986 19.5135 240.16 19.5703 240.319 19.6413C240.478 19.7124 240.616 19.7997 240.733 19.9034C240.849 20.0071 240.939 20.1293 241.003 20.2699C241.069 20.4105 241.102 20.5717 241.103 20.7536C241.102 21.0206 241.034 21.2521 240.899 21.4482C240.765 21.6428 240.572 21.794 240.319 21.902C240.068 22.0085 239.765 22.0618 239.41 22.0618C239.057 22.0618 238.75 22.0078 238.489 21.8999C238.229 21.7919 238.026 21.6321 237.88 21.4205C237.735 21.2074 237.659 20.9439 237.652 20.63H238.544C238.554 20.7763 238.596 20.8984 238.67 20.9964C238.745 21.093 238.846 21.1662 238.971 21.2159C239.097 21.2642 239.24 21.2884 239.399 21.2884C239.555 21.2884 239.691 21.2656 239.806 21.2202C239.922 21.1747 240.013 21.1115 240.076 21.0305C240.14 20.9496 240.172 20.8565 240.172 20.7514C240.172 20.6534 240.143 20.571 240.085 20.5043C240.028 20.4375 239.944 20.3807 239.834 20.3338C239.724 20.2869 239.59 20.2443 239.431 20.206L238.956 20.0866C238.588 19.9972 238.297 19.8572 238.084 19.6669C237.871 19.4766 237.765 19.2202 237.767 18.8977C237.765 18.6335 237.836 18.4027 237.978 18.2053C238.121 18.0078 238.318 17.8537 238.568 17.7429C238.818 17.6321 239.102 17.5767 239.42 17.5767C239.744 17.5767 240.027 17.6321 240.268 17.7429C240.511 17.8537 240.7 18.0078 240.835 18.2053C240.97 18.4027 241.04 18.6314 241.044 18.8913H240.16ZM241.724 22V17.6364H243.446C243.777 17.6364 244.059 17.6996 244.291 17.826C244.524 17.951 244.702 18.125 244.824 18.348C244.948 18.5696 245.009 18.8253 245.009 19.1151C245.009 19.4048 244.947 19.6605 244.822 19.8821C244.697 20.1037 244.516 20.2763 244.279 20.3999C244.043 20.5234 243.757 20.5852 243.422 20.5852H242.325V19.8459H243.273C243.451 19.8459 243.597 19.8153 243.712 19.7543C243.828 19.6918 243.915 19.6058 243.972 19.4964C244.03 19.3857 244.059 19.2585 244.059 19.1151C244.059 18.9702 244.03 18.8437 243.972 18.7358C243.915 18.6264 243.828 18.5419 243.712 18.4822C243.595 18.4212 243.448 18.3906 243.269 18.3906H242.647V22H241.724ZM245.609 22V17.6364H246.531V21.2393H248.402V22H245.609Z" fill="white"/>
<rect x="38.5" y="68.5" width="23" height="23" rx="1.5" fill="#FFC700" stroke="white"/>
<path d="M41.2679 77.6364H42.4057L43.6074 80.5682H43.6586L44.8603 77.6364H45.998V82H45.1032V79.1598H45.0669L43.9377 81.9787H43.3283L42.199 79.1491H42.1628V82H41.2679V77.6364ZM50.7681 79.8182C50.7681 80.294 50.6779 80.6989 50.4975 81.0327C50.3185 81.3665 50.0742 81.6214 49.7646 81.7976C49.4563 81.9723 49.1097 82.0597 48.7248 82.0597C48.337 82.0597 47.989 81.9716 47.6808 81.7955C47.3725 81.6193 47.1289 81.3643 46.9499 81.0305C46.771 80.6967 46.6815 80.2926 46.6815 79.8182C46.6815 79.3423 46.771 78.9375 46.9499 78.6037C47.1289 78.2699 47.3725 78.0156 47.6808 77.8409C47.989 77.6648 48.337 77.5767 48.7248 77.5767C49.1097 77.5767 49.4563 77.6648 49.7646 77.8409C50.0742 78.0156 50.3185 78.2699 50.4975 78.6037C50.6779 78.9375 50.7681 79.3423 50.7681 79.8182ZM49.8327 79.8182C49.8327 79.5099 49.7866 79.25 49.6942 79.0384C49.6033 78.8267 49.4748 78.6662 49.3086 78.5568C49.1424 78.4474 48.9478 78.3928 48.7248 78.3928C48.5018 78.3928 48.3072 78.4474 48.141 78.5568C47.9748 78.6662 47.8455 78.8267 47.7532 79.0384C47.6623 79.25 47.6168 79.5099 47.6168 79.8182C47.6168 80.1264 47.6623 80.3864 47.7532 80.598C47.8455 80.8097 47.9748 80.9702 48.141 81.0795C48.3072 81.1889 48.5018 81.2436 48.7248 81.2436C48.9478 81.2436 49.1424 81.1889 49.3086 81.0795C49.4748 80.9702 49.6033 80.8097 49.6942 80.598C49.7866 80.3864 49.8327 80.1264 49.8327 79.8182ZM52.9984 82H51.4515V77.6364H53.0112C53.4501 77.6364 53.8279 77.7237 54.1447 77.8984C54.4615 78.0717 54.7051 78.321 54.8755 78.6463C55.0474 78.9716 55.1333 79.3608 55.1333 79.8139C55.1333 80.2685 55.0474 80.6591 54.8755 80.9858C54.7051 81.3125 54.46 81.5632 54.1404 81.7379C53.8223 81.9126 53.4416 82 52.9984 82ZM52.3741 81.2095H52.96C53.2328 81.2095 53.4622 81.1612 53.6483 81.0646C53.8358 80.9666 53.9764 80.8153 54.0701 80.6108C54.1653 80.4048 54.2129 80.1392 54.2129 79.8139C54.2129 79.4915 54.1653 79.228 54.0701 79.0234C53.9764 78.8189 53.8365 78.6683 53.6504 78.5717C53.4643 78.4751 53.2349 78.4268 52.9622 78.4268H52.3741V81.2095ZM55.8168 82V77.6364H58.7571V78.397H56.7393V79.4368H58.6058V80.1974H56.7393V81.2393H58.7656V82H55.8168Z" fill="white"/>
<rect x="258.5" y="8.5" width="23" height="23" rx="1.5" stroke="white"/>
<path d="M264.997 18.8913C264.98 18.7195 264.907 18.5859 264.778 18.4908C264.649 18.3956 264.473 18.348 264.252 18.348C264.101 18.348 263.974 18.3693 263.87 18.4119C263.767 18.4531 263.687 18.5107 263.632 18.5845C263.578 18.6584 263.551 18.7422 263.551 18.8359C263.548 18.9141 263.564 18.9822 263.6 19.0405C263.637 19.0987 263.687 19.1491 263.751 19.1918C263.815 19.233 263.889 19.2692 263.973 19.3004C264.056 19.3303 264.146 19.3558 264.241 19.3771L264.633 19.4709C264.823 19.5135 264.998 19.5703 265.157 19.6413C265.316 19.7124 265.454 19.7997 265.571 19.9034C265.687 20.0071 265.777 20.1293 265.841 20.2699C265.907 20.4105 265.94 20.5717 265.941 20.7536C265.94 21.0206 265.872 21.2521 265.737 21.4482C265.603 21.6428 265.41 21.794 265.157 21.902C264.906 22.0085 264.603 22.0618 264.247 22.0618C263.895 22.0618 263.588 22.0078 263.327 21.8999C263.067 21.7919 262.864 21.6321 262.718 21.4205C262.573 21.2074 262.497 20.9439 262.49 20.63H263.382C263.392 20.7763 263.434 20.8984 263.508 20.9964C263.583 21.093 263.684 21.1662 263.809 21.2159C263.935 21.2642 264.078 21.2884 264.237 21.2884C264.393 21.2884 264.529 21.2656 264.644 21.2202C264.76 21.1747 264.85 21.1115 264.914 21.0305C264.978 20.9496 265.01 20.8565 265.01 20.7514C265.01 20.6534 264.981 20.571 264.923 20.5043C264.866 20.4375 264.782 20.3807 264.671 20.3338C264.562 20.2869 264.428 20.2443 264.269 20.206L263.794 20.0866C263.426 19.9972 263.135 19.8572 262.922 19.6669C262.709 19.4766 262.603 19.2202 262.605 18.8977C262.603 18.6335 262.674 18.4027 262.816 18.2053C262.959 18.0078 263.156 17.8537 263.406 17.7429C263.656 17.6321 263.94 17.5767 264.258 17.5767C264.582 17.5767 264.865 17.6321 265.106 17.7429C265.349 17.8537 265.538 18.0078 265.673 18.2053C265.808 18.4027 265.877 18.6314 265.882 18.8913H264.997ZM266.396 18.397V17.6364H269.979V18.397H268.644V22H267.732V18.397H266.396ZM270.57 22V17.6364H273.51V18.397H271.492V19.4368H273.359V20.1974H271.492V21.2393H273.519V22H270.57ZM274.244 22V17.6364H275.965C276.296 17.6364 276.578 17.6996 276.811 17.826C277.044 17.951 277.222 18.125 277.344 18.348C277.467 18.5696 277.529 18.8253 277.529 19.1151C277.529 19.4048 277.467 19.6605 277.342 19.8821C277.217 20.1037 277.035 20.2763 276.798 20.3999C276.562 20.5234 276.277 20.5852 275.942 20.5852H274.844V19.8459H275.793C275.97 19.8459 276.116 19.8153 276.231 19.7543C276.348 19.6918 276.435 19.6058 276.491 19.4964C276.55 19.3857 276.579 19.2585 276.579 19.1151C276.579 18.9702 276.55 18.8437 276.491 18.7358C276.435 18.6264 276.348 18.5419 276.231 18.4822C276.115 18.4212 275.967 18.3906 275.788 18.3906H275.166V22H274.244Z" fill="white"/>
<rect x="163.5" y="8.5" width="23" height="23" rx="1.5" stroke="white"/>
<path d="M171.647 22V17.6364H174.536V18.397H172.569V19.4368H174.344V20.1974H172.569V22H171.647ZM176.744 22.0597C176.426 22.0597 176.142 22.005 175.894 21.8956C175.647 21.7848 175.451 21.6328 175.308 21.4396C175.166 21.245 175.093 21.0206 175.088 20.7663H176.017C176.023 20.8729 176.058 20.9666 176.122 21.0476C176.187 21.1271 176.274 21.1889 176.382 21.233C176.49 21.277 176.611 21.299 176.746 21.299C176.887 21.299 177.011 21.2741 177.119 21.2244C177.227 21.1747 177.311 21.1058 177.373 21.0178C177.434 20.9297 177.464 20.8281 177.464 20.7131C177.464 20.5966 177.431 20.4936 177.366 20.4041C177.302 20.3132 177.21 20.2422 177.089 20.1911C176.97 20.1399 176.828 20.1143 176.663 20.1143H176.256V19.4368H176.663C176.802 19.4368 176.925 19.4126 177.032 19.3643C177.14 19.3161 177.223 19.2493 177.283 19.1641C177.343 19.0774 177.373 18.9766 177.373 18.8615C177.373 18.7521 177.346 18.6562 177.294 18.5739C177.243 18.4901 177.17 18.4247 177.076 18.3778C176.984 18.331 176.876 18.3075 176.752 18.3075C176.627 18.3075 176.513 18.3303 176.409 18.3757C176.306 18.4197 176.223 18.483 176.16 18.5653C176.098 18.6477 176.064 18.7443 176.06 18.8551H175.176C175.18 18.6037 175.252 18.3821 175.391 18.1903C175.53 17.9986 175.718 17.8487 175.953 17.7408C176.191 17.6314 176.458 17.5767 176.757 17.5767C177.058 17.5767 177.321 17.6314 177.547 17.7408C177.773 17.8501 177.949 17.9979 178.074 18.1839C178.2 18.3686 178.262 18.576 178.261 18.8061C178.262 19.0504 178.186 19.2543 178.033 19.4176C177.881 19.581 177.683 19.6847 177.439 19.7287V19.7628C177.76 19.804 178.004 19.9155 178.172 20.0973C178.341 20.2777 178.424 20.5036 178.423 20.7749C178.424 21.0234 178.353 21.2443 178.208 21.4375C178.064 21.6307 177.866 21.7827 177.613 21.8935C177.36 22.0043 177.071 22.0597 176.744 22.0597Z" fill="white"/>
<rect x="228.5" y="68.5" width="23" height="23" rx="1.5" stroke="white"/>
<path d="M231.93 82V77.6364H233.677C233.998 77.6364 234.266 77.6839 234.48 77.7791C234.695 77.8743 234.856 78.0064 234.964 78.1754C235.072 78.343 235.126 78.5362 235.126 78.755C235.126 78.9254 235.092 79.0753 235.024 79.2045C234.956 79.3324 234.862 79.4375 234.743 79.5199C234.625 79.6009 234.49 79.6584 234.338 79.6925V79.7351C234.504 79.7422 234.659 79.7891 234.804 79.8757C234.951 79.9624 235.069 80.0838 235.16 80.2401C235.251 80.3949 235.297 80.5795 235.297 80.794C235.297 81.0256 235.239 81.2322 235.124 81.4141C235.01 81.5945 234.842 81.7372 234.619 81.8423C234.396 81.9474 234.121 82 233.794 82H231.93ZM232.853 81.2457H233.605C233.862 81.2457 234.049 81.1967 234.167 81.0987C234.285 80.9993 234.344 80.8672 234.344 80.7024C234.344 80.5817 234.315 80.4751 234.257 80.3828C234.199 80.2905 234.115 80.218 234.007 80.1655C233.901 80.1129 233.774 80.0866 233.626 80.0866H232.853V81.2457ZM232.853 79.4624H233.537C233.663 79.4624 233.775 79.4403 233.873 79.3963C233.973 79.3509 234.051 79.2869 234.108 79.2045C234.166 79.1222 234.195 79.0234 234.195 78.9084C234.195 78.7507 234.139 78.6236 234.027 78.527C233.916 78.4304 233.758 78.3821 233.554 78.3821H232.853V79.4624ZM236.649 82H235.66L237.167 77.6364H238.356L239.86 82H238.871L237.778 78.6335H237.744L236.649 82ZM236.587 80.2848H238.922V81.005H236.587V80.2848ZM244.03 79.1641H243.097C243.08 79.0433 243.045 78.9361 242.993 78.8423C242.94 78.7472 242.873 78.6662 242.79 78.5994C242.708 78.5327 242.613 78.4815 242.505 78.446C242.398 78.4105 242.282 78.3928 242.157 78.3928C241.931 78.3928 241.735 78.4489 241.567 78.5611C241.4 78.6719 241.27 78.8338 241.177 79.0469C241.085 79.2585 241.039 79.5156 241.039 79.8182C241.039 80.1293 241.085 80.3906 241.177 80.6023C241.271 80.8139 241.402 80.9737 241.569 81.0817C241.737 81.1896 241.931 81.2436 242.151 81.2436C242.275 81.2436 242.389 81.2273 242.494 81.1946C242.6 81.1619 242.695 81.1143 242.777 81.0518C242.86 80.9879 242.928 80.9105 242.982 80.8196C243.037 80.7287 243.076 80.625 243.097 80.5085L244.03 80.5128C244.006 80.7131 243.946 80.9062 243.849 81.0923C243.754 81.277 243.625 81.4425 243.463 81.5888C243.303 81.7337 243.111 81.8487 242.888 81.9339C242.667 82.0178 242.416 82.0597 242.136 82.0597C241.747 82.0597 241.399 81.9716 241.092 81.7955C240.787 81.6193 240.545 81.3643 240.368 81.0305C240.191 80.6967 240.103 80.2926 240.103 79.8182C240.103 79.3423 240.193 78.9375 240.372 78.6037C240.551 78.2699 240.794 78.0156 241.1 77.8409C241.407 77.6648 241.752 77.5767 242.136 77.5767C242.389 77.5767 242.623 77.6122 242.839 77.6832C243.056 77.7543 243.249 77.858 243.417 77.9943C243.584 78.1293 243.721 78.2947 243.826 78.4908C243.932 78.6868 244 78.9112 244.03 79.1641ZM244.692 82V77.6364H245.614V79.5604H245.672L247.242 77.6364H248.348L246.729 79.5902L248.367 82H247.263L246.068 80.206L245.614 80.7599V82H244.692Z" fill="white"/>
<rect x="258.5" y="68.5" width="23" height="23" rx="1.5" stroke="white"/>
<path d="M269.974 79.8182C269.974 80.294 269.884 80.6989 269.704 81.0327C269.525 81.3665 269.28 81.6214 268.971 81.7976C268.662 81.9723 268.316 82.0597 267.931 82.0597C267.543 82.0597 267.195 81.9716 266.887 81.7955C266.579 81.6193 266.335 81.3643 266.156 81.0305C265.977 80.6967 265.888 80.2926 265.888 79.8182C265.888 79.3423 265.977 78.9375 266.156 78.6037C266.335 78.2699 266.579 78.0156 266.887 77.8409C267.195 77.6648 267.543 77.5767 267.931 77.5767C268.316 77.5767 268.662 77.6648 268.971 77.8409C269.28 78.0156 269.525 78.2699 269.704 78.6037C269.884 78.9375 269.974 79.3423 269.974 79.8182ZM269.039 79.8182C269.039 79.5099 268.993 79.25 268.9 79.0384C268.809 78.8267 268.681 78.6662 268.515 78.5568C268.348 78.4474 268.154 78.3928 267.931 78.3928C267.708 78.3928 267.513 78.4474 267.347 78.5568C267.181 78.6662 267.052 78.8267 266.959 79.0384C266.868 79.25 266.823 79.5099 266.823 79.8182C266.823 80.1264 266.868 80.3864 266.959 80.598C267.052 80.8097 267.181 80.9702 267.347 81.0795C267.513 81.1889 267.708 81.2436 267.931 81.2436C268.154 81.2436 268.348 81.1889 268.515 81.0795C268.681 80.9702 268.809 80.8097 268.9 80.598C268.993 80.3864 269.039 80.1264 269.039 79.8182ZM270.658 82V77.6364H271.58V79.5604H271.638L273.208 77.6364H274.314L272.695 79.5902L274.333 82H273.229L272.034 80.206L271.58 80.7599V82H270.658Z" fill="white"/>
<rect x="228.5" y="38.5" width="23" height="23" rx="1.5" fill="#0099FF" stroke="white"/>
<path d="M241.99 49.696V51.1364H238.01V49.696H241.99Z" fill="white"/>
<rect x="258.5" y="38.5" width="23" height="23" rx="1.5" fill="#0099FF" stroke="white"/>
<path d="M269.237 53.527V47.4929H270.763V53.527H269.237ZM266.983 51.2727V49.7472H273.017V51.2727H266.983Z" fill="white"/>
<rect x="38.5" y="8.5" width="23" height="23" rx="1.5" stroke="white"/>
<path d="M46.34 17.6364L47.22 19.1236H47.2541L48.1383 17.6364H49.1802L47.8485 19.8182L49.21 22H48.149L47.2541 20.5107H47.22L46.3251 22H45.2683L46.6341 19.8182L45.2939 17.6364H46.34ZM52.8381 22.0959C52.4716 22.0945 52.1563 22.0043 51.892 21.8253C51.6293 21.6463 51.4268 21.3871 51.2848 21.0476C51.1442 20.7081 51.0746 20.2997 51.076 19.8224C51.076 19.3466 51.1463 18.9411 51.2869 18.6058C51.429 18.2706 51.6314 18.0156 51.8942 17.8409C52.1584 17.6648 52.473 17.5767 52.8381 17.5767C53.2031 17.5767 53.517 17.6648 53.7798 17.8409C54.044 18.017 54.2472 18.2727 54.3892 18.608C54.5313 18.9418 54.6016 19.3466 54.6001 19.8224C54.6001 20.3011 54.5291 20.7102 54.3871 21.0497C54.2464 21.3892 54.0447 21.6484 53.782 21.8274C53.5192 22.0064 53.2045 22.0959 52.8381 22.0959ZM52.8381 21.331C53.0881 21.331 53.2876 21.2053 53.4368 20.9538C53.5859 20.7024 53.6598 20.3253 53.6584 19.8224C53.6584 19.4915 53.6243 19.2159 53.5561 18.9957C53.4893 18.7756 53.3942 18.6101 53.2706 18.4993C53.1484 18.3885 53.0043 18.3331 52.8381 18.3331C52.5895 18.3331 52.3906 18.4574 52.2415 18.706C52.0923 18.9545 52.017 19.3267 52.0156 19.8224C52.0156 20.1577 52.049 20.4375 52.1158 20.6619C52.1839 20.8849 52.2798 21.0526 52.4034 21.1648C52.527 21.2756 52.6719 21.331 52.8381 21.331Z" fill="white"/>
<rect x="8.5" y="8.5" width="23" height="23" rx="1.5" stroke="white"/>
<path d="M15.5716 22V21.4524L17.7492 18.397H15.5674V17.6364H18.9083V18.1839L16.7286 21.2393H18.9126V22H15.5716ZM22.6945 22.0959C22.328 22.0945 22.0127 22.0043 21.7485 21.8253C21.4857 21.6463 21.2833 21.3871 21.1412 21.0476C21.0006 20.7081 20.931 20.2997 20.9324 19.8224C20.9324 19.3466 21.0028 18.9411 21.1434 18.6058C21.2854 18.2706 21.4878 18.0156 21.7506 17.8409C22.0148 17.6648 22.3295 17.5767 22.6945 17.5767C23.0596 17.5767 23.3735 17.6648 23.6363 17.8409C23.9005 18.017 24.1036 18.2727 24.2457 18.608C24.3877 18.9418 24.458 19.3466 24.4566 19.8224C24.4566 20.3011 24.3856 20.7102 24.2435 21.0497C24.1029 21.3892 23.9012 21.6484 23.6384 21.8274C23.3756 22.0064 23.061 22.0959 22.6945 22.0959ZM22.6945 21.331C22.9445 21.331 23.1441 21.2053 23.2932 20.9538C23.4424 20.7024 23.5162 20.3253 23.5148 19.8224C23.5148 19.4915 23.4807 19.2159 23.4126 18.9957C23.3458 18.7756 23.2506 18.6101 23.127 18.4993C23.0049 18.3885 22.8607 18.3331 22.6945 18.3331C22.4459 18.3331 22.2471 18.4574 22.0979 18.706C21.9488 18.9545 21.8735 19.3267 21.8721 19.8224C21.8721 20.1577 21.9055 20.4375 21.9722 20.6619C22.0404 20.8849 22.1363 21.0526 22.2599 21.1648C22.3834 21.2756 22.5283 21.331 22.6945 21.331Z" fill="white"/>
<rect x="133.5" y="8.5" width="23" height="23" rx="1.5" stroke="white"/>
<path d="M141.735 22V17.6364H144.624V18.397H142.657V19.4368H144.432V20.1974H142.657V22H141.735ZM145.219 22V21.3352L146.772 19.897C146.904 19.7692 147.015 19.6541 147.105 19.5518C147.195 19.4496 147.264 19.3494 147.311 19.2514C147.358 19.152 147.382 19.0447 147.382 18.9297C147.382 18.8018 147.352 18.6918 147.294 18.5994C147.236 18.5057 147.156 18.4339 147.056 18.3842C146.955 18.3331 146.84 18.3075 146.713 18.3075C146.579 18.3075 146.463 18.3345 146.363 18.3885C146.264 18.4425 146.187 18.5199 146.133 18.6207C146.079 18.7216 146.052 18.8416 146.052 18.9808H145.176C145.176 18.6953 145.241 18.4474 145.37 18.2372C145.499 18.027 145.681 17.8643 145.914 17.7493C146.146 17.6342 146.415 17.5767 146.719 17.5767C147.031 17.5767 147.303 17.6321 147.535 17.7429C147.768 17.8523 147.949 18.0043 148.078 18.1989C148.208 18.3935 148.272 18.6165 148.272 18.8679C148.272 19.0327 148.24 19.1953 148.174 19.3558C148.11 19.5163 147.996 19.6946 147.831 19.8906C147.666 20.0852 147.434 20.3189 147.134 20.5916L146.497 21.2159V21.2457H148.33V22H145.219Z" fill="white"/>
<rect x="103.5" y="8.5" width="23" height="23" rx="1.5" stroke="white"/>
<path d="M112.157 22V17.6364H115.046V18.397H113.079V19.4368H114.854V20.1974H113.079V22H112.157ZM117.539 17.6364V22H116.617V18.5121H116.591L115.592 19.1385V18.3203L116.672 17.6364H117.539Z" fill="white"/>
<rect x="8.5" y="38.5" width="23" height="23" rx="1.5" stroke="white"/>
<path d="M11.35 52V51.4524L13.5275 48.397H11.3457V47.6364H14.6866V48.1839L12.5069 51.2393H14.6909V52H11.35ZM16.7875 52V47.6364H19.7278V48.397H17.71V49.4368H19.5765V50.1974H17.71V51.2393H19.7363V52H16.7875ZM24.1112 47.6364V52H23.3143L21.4158 49.2536H21.3839V52H20.4613V47.6364H21.271L23.1545 50.3807H23.1928V47.6364H24.1112ZM25.6255 52H24.6369L26.1433 47.6364H27.3322L28.8365 52H27.8478L26.7548 48.6335H26.7207L25.6255 52ZM25.5637 50.2848H27.899V51.005H25.5637V50.2848Z" fill="white"/>
<rect x="8.5" y="68.5" width="23" height="23" rx="1.5" stroke="white"/>
<path d="M21.7089 73.0892L22.2064 73.0394V73.0394L21.7089 73.0892ZM21.663 72.7489L22.147 72.6234V72.6234L21.663 72.7489ZM21.7953 73.6981L21.3216 73.858V73.858L21.7953 73.6981ZM23.1866 74.2744L23.4085 74.7224V74.7224L23.1866 74.2744ZM23.6783 73.9049L23.3617 73.5179V73.5179L23.6783 73.9049ZM23.9513 73.6968L23.6978 73.2658L23.6978 73.2658L23.9513 73.6968ZM25.0485 73.7516L24.7534 74.1552V74.1552L25.0485 73.7516ZM25.2994 73.9857L24.9459 74.3393L24.9516 74.345L24.9574 74.3505L25.2994 73.9857ZM25.2994 73.9858L25.653 73.6322L25.6473 73.6265L25.6414 73.621L25.2994 73.9858ZM26.0142 74.7005L25.6607 75.0541L26.0142 74.7005ZM26.2484 74.9515L25.8448 75.2466L25.8448 75.2466L26.2484 74.9515ZM26.3031 76.0486L25.8722 75.7952L25.8722 75.7952L26.3031 76.0486ZM26.0951 76.3217L26.4486 76.6752L26.4662 76.6576L26.482 76.6383L26.0951 76.3217ZM26.0951 76.3217L25.7415 75.9681L25.7239 75.9858L25.7081 76.0051L26.0951 76.3217ZM25.7256 76.8134L26.1736 77.0353L26.1736 77.0353L25.7256 76.8134ZM26.3018 78.2046L26.4618 77.7309V77.7309L26.3018 78.2046ZM26.9108 78.2911L26.9606 77.7936H26.9606L26.9108 78.2911ZM27.2511 78.337L27.3766 77.853L27.3766 77.853L27.2511 78.337ZM27.9881 79.1515L28.4822 79.0747V79.0747L27.9881 79.1515ZM27.9882 80.8484L28.4822 80.9251L28.4822 80.9251L27.9882 80.8484ZM27.251 81.663L27.3765 82.147L27.3765 82.147L27.251 81.663ZM26.9109 81.7089L26.9607 82.2064H26.9607L26.9109 81.7089ZM26.3023 81.7953L26.1424 81.3215H26.1424L26.3023 81.7953ZM25.7259 83.1867L25.2779 83.4087L25.7259 83.1867ZM26.0952 83.678L25.7082 83.9947V83.9947L26.0952 83.678ZM26.0952 83.6781L25.7082 83.9947L25.7082 83.9947L26.0952 83.6781ZM26.3031 83.9509L26.7341 83.6974L26.7341 83.6974L26.3031 83.9509ZM26.2484 85.0482L26.652 85.3434L26.652 85.3434L26.2484 85.0482ZM26.0144 85.299L26.3679 85.6526L26.3679 85.6526L26.0144 85.299ZM26.0143 85.299L26.3679 85.6526H26.3679L26.0143 85.299ZM25.2995 86.0139L24.9459 85.6603H24.9459L25.2995 86.0139ZM25.0485 86.2481L25.3436 86.6517L25.3436 86.6517L25.0485 86.2481ZM23.9514 86.3028L23.6979 86.7338L23.6979 86.7338L23.9514 86.3028ZM23.6784 86.0948L23.3491 86.471L23.3553 86.4765L23.3617 86.4817L23.6784 86.0948ZM23.6783 86.0947L24.0076 85.7185L24.0014 85.713L23.995 85.7078L23.6783 86.0947ZM23.1866 85.7253L22.9647 86.1733L23.1866 85.7253ZM21.7954 86.3015L22.2691 86.4615L22.2691 86.4615L21.7954 86.3015ZM21.7089 86.9106L22.2052 86.9727L22.2065 86.9604L21.7089 86.9106ZM21.7089 86.9107L22.204 86.9814L22.2051 86.9727L21.7089 86.9107ZM21.7089 86.9107L21.214 86.84L21.2125 86.8504L21.2114 86.8609L21.7089 86.9107ZM21.663 87.2511L22.1469 87.3767L22.1469 87.3767L21.663 87.2511ZM20.8486 87.9881L20.7718 87.4941L20.7718 87.4941L20.8486 87.9881ZM19.1515 87.9881L19.0747 88.4822L19.1515 87.9881ZM18.337 87.2511L17.853 87.3766L18.337 87.2511ZM18.2911 86.9108L17.7936 86.9606V86.9606L18.2911 86.9108ZM18.2046 86.3018L18.6784 86.1419L18.6784 86.1419L18.2046 86.3018ZM16.8134 85.7256L16.5915 85.2775L16.8134 85.7256ZM16.3217 86.0951L16.6383 86.4821L16.6383 86.4821L16.3217 86.0951ZM16.0486 86.3032L16.3021 86.7342L16.0486 86.3032ZM14.9515 86.2485L14.6564 86.6521L14.6564 86.6521L14.9515 86.2485ZM14.7005 86.0142L15.054 85.6607L15.054 85.6607L14.7005 86.0142ZM13.9857 85.2995L13.6172 85.6373L13.6245 85.6454L13.6322 85.653L13.9857 85.2995ZM13.9857 85.2995L14.3543 84.9616L14.347 84.9536L14.3393 84.9459L13.9857 85.2995ZM13.7515 85.0485L14.1551 84.7534L14.1551 84.7534L13.7515 85.0485ZM13.6968 83.9514L14.1278 84.2048L14.1278 84.2048L13.6968 83.9514ZM13.9049 83.6783L14.2919 83.9949L14.3029 83.9815L14.3129 83.9673L13.9049 83.6783ZM13.9049 83.6783L13.5179 83.3617L13.5069 83.3751L13.4969 83.3893L13.9049 83.6783ZM14.2744 83.1866L14.7224 83.4085H14.7224L14.2744 83.1866ZM13.6981 81.7953L13.858 81.3216L13.858 81.3216L13.6981 81.7953ZM13.0891 81.7089L13.1389 81.2114H13.1389L13.0891 81.7089ZM12.7489 81.663L12.8745 81.179H12.8745L12.7489 81.663ZM12.0118 80.8485L12.5059 80.7718L12.0118 80.8485ZM12.0119 79.1514L11.5178 79.0746V79.0746L12.0119 79.1514ZM12.7489 78.337L12.6233 77.8531L12.6233 77.8531L12.7489 78.337ZM13.0892 78.2911L13.139 78.7886H13.139L13.0892 78.2911ZM13.6985 78.2046L13.5385 77.7309H13.5385L13.6985 78.2046ZM14.2747 76.8135L14.7228 76.5917H14.7228L14.2747 76.8135ZM13.905 76.3215L14.2921 76.0048L14.286 75.9976L13.905 76.3215ZM13.905 76.3215L13.518 76.6381L13.5241 76.6453L13.905 76.3215ZM13.6968 76.0482L14.1278 75.7948L14.1278 75.7948L13.6968 76.0482ZM13.7515 74.9512L14.1551 75.2463L14.1551 75.2463L13.7515 74.9512ZM14.7005 73.9854L14.347 73.6319V73.6319L14.7005 73.9854ZM14.9515 73.7512L14.6564 73.3475L14.6564 73.3475L14.9515 73.7512ZM16.0486 73.6965L16.3021 73.2655H16.3021L16.0486 73.6965ZM16.3218 73.9046L16.6384 73.5176V73.5176L16.3218 73.9046ZM16.8133 74.274L16.5914 74.7221L16.5914 74.7221L16.8133 74.274ZM18.2047 73.6977L17.731 73.5378L17.731 73.5378L18.2047 73.6977ZM18.2911 73.089L18.7886 73.1388V73.1388L18.2911 73.089ZM18.337 72.749L17.853 72.6235L17.853 72.6235L18.337 72.749ZM19.1516 72.0118L19.0749 71.5178L19.1516 72.0118ZM20.8485 72.0118L20.9252 71.5178L20.9252 71.5178L20.8485 72.0118ZM22.2064 73.0394C22.1905 72.8805 22.1785 72.7448 22.147 72.6234L21.179 72.8745C21.1863 72.9025 21.1919 72.9439 21.2114 73.1389L22.2064 73.0394ZM22.2691 73.5382C22.256 73.4994 22.2434 73.4089 22.2064 73.0394L21.2114 73.1389C21.2413 73.438 21.2621 73.6819 21.3216 73.858L22.2691 73.5382ZM22.9647 73.8263C22.6934 73.9607 22.3659 73.825 22.2691 73.5382L21.3216 73.858C21.6121 74.7185 22.5946 75.1255 23.4085 74.7224L22.9647 73.8263ZM23.3617 73.5179C23.0742 73.7531 23.0014 73.8081 22.9647 73.8263L23.4085 74.7224C23.5751 74.6399 23.7623 74.4822 23.9949 74.2919L23.3617 73.5179ZM23.6978 73.2658C23.5898 73.3294 23.4853 73.4168 23.3617 73.5179L23.9949 74.2919C24.1466 74.1678 24.1798 74.1425 24.2048 74.1278L23.6978 73.2658ZM25.3436 73.3479C24.8605 72.9947 24.2137 72.9625 23.6978 73.2658L24.2048 74.1278C24.3767 74.0267 24.5923 74.0374 24.7534 74.1552L25.3436 73.3479ZM25.653 73.6322C25.54 73.5193 25.4448 73.4219 25.3436 73.3479L24.7534 74.1552C24.7768 74.1723 24.8073 74.2007 24.9459 74.3393L25.653 73.6322ZM25.6414 73.621L25.6414 73.621L24.9574 74.3505L24.9575 74.3505L25.6414 73.621ZM26.3678 74.347L25.653 73.6322L24.9459 74.3393L25.6607 75.0541L26.3678 74.347ZM26.6521 74.6564C26.578 74.5552 26.4807 74.4599 26.3678 74.347L25.6607 75.0541C25.7992 75.1927 25.8277 75.2232 25.8448 75.2466L26.6521 74.6564ZM26.7341 76.3021C27.0375 75.7863 27.0052 75.1395 26.6521 74.6564L25.8448 75.2466C25.9625 75.4076 25.9733 75.6232 25.8722 75.7952L26.7341 76.3021ZM26.482 76.6383C26.5832 76.5147 26.6706 76.4102 26.7341 76.3021L25.8722 75.7952C25.8575 75.8202 25.8322 75.8534 25.7081 76.0051L26.482 76.6383ZM26.4486 76.6752L26.4486 76.6752L25.7415 75.9681L25.7415 75.9681L26.4486 76.6752ZM26.1736 77.0353C26.1918 76.9986 26.2468 76.9258 26.482 76.6383L25.7081 76.0051C25.5177 76.2377 25.36 76.4249 25.2775 76.5915L26.1736 77.0353ZM26.4618 77.7309C26.175 77.6341 26.0393 77.3066 26.1736 77.0353L25.2775 76.5915C24.8745 77.4054 25.2814 78.3879 26.1419 78.6784L26.4618 77.7309ZM26.9606 77.7936C26.591 77.7566 26.5006 77.744 26.4618 77.7309L26.1419 78.6784C26.3181 78.7379 26.562 78.7587 26.8611 78.7886L26.9606 77.7936ZM27.3766 77.853C27.2552 77.8215 27.1195 77.8095 26.9606 77.7936L26.8611 78.7886C27.0561 78.8081 27.0975 78.8137 27.1255 78.821L27.3766 77.853ZM28.4822 79.0747C28.3904 78.4834 27.9558 78.0033 27.3766 77.853L27.1255 78.821C27.3186 78.8711 27.4635 79.0311 27.4941 79.2282L28.4822 79.0747ZM28.5 79.4946C28.5 79.3349 28.5015 79.1987 28.4822 79.0747L27.4941 79.2282C27.4985 79.2569 27.5 79.2986 27.5 79.4946H28.5ZM28.5 80.5055V79.4946H27.5V80.5055H28.5ZM28.4822 80.9251C28.5015 80.8013 28.5 80.6652 28.5 80.5055H27.5C27.5 80.7014 27.4985 80.7431 27.4941 80.7717L28.4822 80.9251ZM27.3765 82.147C27.9558 81.9968 28.3904 81.5166 28.4822 80.9251L27.4941 80.7717C27.4635 80.9689 27.3186 81.1289 27.1255 81.179L27.3765 82.147ZM26.9607 82.2064C27.1195 82.1905 27.2551 82.1785 27.3765 82.147L27.1255 81.179C27.0974 81.1863 27.0561 81.1919 26.8612 81.2114L26.9607 82.2064ZM26.4622 82.269C26.5009 82.2559 26.5913 82.2434 26.9607 82.2064L26.8612 81.2114C26.5622 81.2413 26.3185 81.2621 26.1424 81.3215L26.4622 82.269ZM26.174 82.9647C26.0396 82.6934 26.1753 82.3658 26.4622 82.269L26.1424 81.3215C25.2817 81.6119 24.8747 82.5947 25.2779 83.4087L26.174 82.9647ZM26.4821 83.3614C26.2471 83.0742 26.1921 83.0014 26.174 82.9647L25.2779 83.4087C25.3604 83.5751 25.518 83.7622 25.7082 83.9947L26.4821 83.3614ZM26.4822 83.3615L26.4821 83.3614L25.7082 83.9947L25.7082 83.9947L26.4822 83.3615ZM26.7341 83.6974C26.6705 83.5894 26.5832 83.485 26.4822 83.3614L25.7082 83.9947C25.8322 84.1463 25.8575 84.1794 25.8722 84.2044L26.7341 83.6974ZM26.652 85.3434C27.0053 84.8602 27.0376 84.2133 26.7341 83.6974L25.8722 84.2044C25.9733 84.3764 25.9626 84.592 25.8448 84.7531L26.652 85.3434ZM26.3679 85.6526C26.4808 85.5397 26.578 85.4445 26.652 85.3434L25.8448 84.7531C25.8277 84.7765 25.7993 84.807 25.6608 84.9455L26.3679 85.6526ZM26.3679 85.6526L26.3679 85.6526L25.6608 84.9454L25.6608 84.9455L26.3679 85.6526ZM25.653 86.3674L26.3679 85.6526L25.6608 84.9455L24.9459 85.6603L25.653 86.3674ZM25.3436 86.6517C25.4448 86.5777 25.5401 86.4804 25.653 86.3674L24.9459 85.6603C24.8073 85.7989 24.7768 85.8274 24.7534 85.8445L25.3436 86.6517ZM23.6979 86.7338C24.2137 87.0372 24.8605 87.0049 25.3436 86.6517L24.7534 85.8445C24.5924 85.9622 24.3768 85.9729 24.2048 85.8718L23.6979 86.7338ZM23.3617 86.4817C23.4853 86.5829 23.5898 86.6702 23.6979 86.7338L24.2048 85.8718C24.1798 85.8571 24.1467 85.8319 23.995 85.7078L23.3617 86.4817ZM23.3491 86.471L23.3491 86.471L24.0076 85.7185L24.0076 85.7185L23.3491 86.471ZM22.9647 86.1733C23.0014 86.1915 23.0743 86.2465 23.3617 86.4817L23.995 85.7078C23.7623 85.5174 23.5751 85.3597 23.4085 85.2772L22.9647 86.1733ZM22.2691 86.4615C22.3659 86.1746 22.6934 86.039 22.9647 86.1733L23.4085 85.2772C22.5946 84.8742 21.6122 85.2811 21.3217 86.1416L22.2691 86.4615ZM22.2065 86.9604C22.2434 86.5907 22.256 86.5003 22.2691 86.4615L21.3217 86.1416C21.2622 86.3178 21.2413 86.5617 21.2114 86.8609L22.2065 86.9604ZM22.2051 86.9727L22.2051 86.9726L21.2128 86.8486L21.2128 86.8486L22.2051 86.9727ZM22.2039 86.9814L22.2039 86.9814L21.214 86.8399L21.214 86.84L22.2039 86.9814ZM22.1469 87.3767C22.1785 87.2553 22.1905 87.1195 22.2065 86.9604L21.2114 86.8609C21.1919 87.0561 21.1863 87.0975 21.179 87.1256L22.1469 87.3767ZM20.9254 88.4822C21.5166 88.3903 21.9967 87.9559 22.1469 87.3767L21.179 87.1256C21.1289 87.3186 20.9689 87.4634 20.7718 87.4941L20.9254 88.4822ZM20.5053 88.5C20.6651 88.5 20.8014 88.5015 20.9254 88.4822L20.7718 87.4941C20.7431 87.4985 20.7014 87.5 20.5053 87.5V88.5ZM19.4946 88.5H20.5053V87.5H19.4946V88.5ZM19.0747 88.4822C19.1987 88.5015 19.3349 88.5 19.4946 88.5V87.5C19.2986 87.5 19.2569 87.4985 19.2282 87.4941L19.0747 88.4822ZM17.853 87.3766C18.0033 87.9558 18.4834 88.3904 19.0747 88.4822L19.2282 87.4941C19.0311 87.4635 18.8711 87.3186 18.821 87.1255L17.853 87.3766ZM17.7936 86.9606C17.8095 87.1195 17.8215 87.2552 17.853 87.3766L18.821 87.1255C18.8137 87.0975 18.8081 87.0561 18.7886 86.8611L17.7936 86.9606ZM17.7309 86.4618C17.744 86.5006 17.7566 86.591 17.7936 86.9606L18.7886 86.8611C18.7587 86.562 18.7379 86.3181 18.6784 86.1419L17.7309 86.4618ZM17.0353 86.1736C17.3066 86.0393 17.6341 86.175 17.7309 86.4618L18.6784 86.1419C18.3879 85.2814 17.4054 84.8745 16.5915 85.2775L17.0353 86.1736ZM16.6383 86.4821C16.9258 86.2469 16.9986 86.1918 17.0353 86.1736L16.5915 85.2775C16.4249 85.36 16.2377 85.5178 16.005 85.7081L16.6383 86.4821ZM16.3021 86.7342C16.4102 86.6706 16.5146 86.5832 16.6383 86.4821L16.005 85.7081C15.8533 85.8322 15.8201 85.8575 15.7951 85.8722L16.3021 86.7342ZM14.6564 86.6521C15.1395 87.0053 15.7862 87.0375 16.3021 86.7342L15.7951 85.8722C15.6232 85.9733 15.4076 85.9626 15.2466 85.8448L14.6564 86.6521ZM14.3469 86.3678C14.4599 86.4807 14.5551 86.5781 14.6564 86.6521L15.2466 85.8448C15.2232 85.8277 15.1926 85.7993 15.054 85.6607L14.3469 86.3678ZM13.6322 85.653L14.3469 86.3678L15.054 85.6607L14.3393 84.9459L13.6322 85.653ZM13.6171 85.6373L13.6172 85.6373L14.3543 84.9616L14.3543 84.9616L13.6171 85.6373ZM13.3479 85.3436C13.4219 85.4448 13.5192 85.5401 13.6322 85.653L14.3393 84.9459C14.2007 84.8073 14.1723 84.7768 14.1551 84.7534L13.3479 85.3436ZM13.2658 83.6979C12.9624 84.2137 12.9947 84.8605 13.3479 85.3436L14.1551 84.7534C14.0374 84.5924 14.0267 84.3768 14.1278 84.2048L13.2658 83.6979ZM13.5179 83.3617C13.4168 83.4853 13.3294 83.5898 13.2658 83.6979L14.1278 84.2048C14.1425 84.1798 14.1677 84.1466 14.2919 83.9949L13.5179 83.3617ZM13.4969 83.3893L13.4969 83.3893L14.3129 83.9673L14.3129 83.9673L13.4969 83.3893ZM13.8263 82.9647C13.8081 83.0014 13.7531 83.0742 13.5179 83.3617L14.2919 83.9949C14.4822 83.7623 14.6399 83.5751 14.7224 83.4085L13.8263 82.9647ZM13.5382 82.2691C13.825 82.3659 13.9606 82.6934 13.8263 82.9647L14.7224 83.4085C15.1255 82.5946 14.7185 81.6121 13.858 81.3216L13.5382 82.2691ZM13.0394 82.2064C13.4089 82.2434 13.4994 82.256 13.5382 82.2691L13.858 81.3216C13.6819 81.2621 13.438 81.2413 13.1389 81.2114L13.0394 82.2064ZM12.6234 82.147C12.7448 82.1785 12.8805 82.1905 13.0394 82.2064L13.1389 81.2114C12.9439 81.1919 12.9025 81.1863 12.8745 81.179L12.6234 82.147ZM11.5178 80.9252C11.6096 81.5166 12.0442 81.9967 12.6234 82.147L12.8745 81.179C12.6814 81.1289 12.5365 80.9689 12.5059 80.7718L11.5178 80.9252ZM11.5 80.5054C11.5 80.6651 11.4985 80.8013 11.5178 80.9252L12.5059 80.7718C12.5015 80.7431 12.5 80.7014 12.5 80.5054H11.5ZM11.5 79.4947V80.5054H12.5V79.4947H11.5ZM11.5178 79.0746C11.4985 79.1986 11.5 79.3349 11.5 79.4947H12.5C12.5 79.2986 12.5015 79.2569 12.5059 79.2282L11.5178 79.0746ZM12.6233 77.8531C12.0441 78.0033 11.6097 78.4834 11.5178 79.0746L12.5059 79.2282C12.5366 79.0311 12.6814 78.8711 12.8744 78.821L12.6233 77.8531ZM13.0395 77.7936C12.8805 77.8095 12.7448 77.8215 12.6233 77.8531L12.8744 78.821C12.9025 78.8137 12.9439 78.8081 13.139 78.7886L13.0395 77.7936ZM13.5385 77.7309C13.4997 77.744 13.4092 77.7566 13.0395 77.7936L13.139 78.7886C13.4382 78.7587 13.6823 78.7378 13.8585 78.6783L13.5385 77.7309ZM13.8266 77.0353C13.9609 77.3066 13.8253 77.634 13.5385 77.7309L13.8585 78.6783C14.7188 78.3877 15.1257 77.4054 14.7228 76.5917L13.8266 77.0353ZM13.518 76.6381C13.7534 76.9257 13.8085 76.9986 13.8266 77.0353L14.7228 76.5917C14.6403 76.4249 14.4825 76.2376 14.292 76.0048L13.518 76.6381ZM13.5241 76.6453L13.5241 76.6453L14.286 75.9976L14.286 75.9976L13.5241 76.6453ZM13.2657 76.3016C13.3294 76.4098 13.4168 76.5143 13.518 76.6381L14.292 76.0048C14.1678 75.853 14.1425 75.8198 14.1278 75.7948L13.2657 76.3016ZM13.3478 74.6562C12.9948 75.1392 12.9625 75.7858 13.2657 76.3016L14.1278 75.7948C14.0267 75.6228 14.0375 75.4073 14.1551 75.2463L13.3478 74.6562ZM13.6323 74.3465C13.5193 74.4595 13.4219 74.5549 13.3478 74.6562L14.1551 75.2463C14.1723 75.2229 14.2007 75.1923 14.3394 75.0536L13.6323 74.3465ZM14.347 73.6319L13.6323 74.3465L14.3394 75.0536L15.0541 74.339L14.347 73.6319ZM14.347 73.6319L14.347 73.6319L15.0541 74.339L15.0541 74.339L14.347 73.6319ZM14.6564 73.3475C14.5552 73.4216 14.4599 73.5189 14.347 73.6319L15.0541 74.339C15.1927 74.2004 15.2232 74.1719 15.2466 74.1548L14.6564 73.3475ZM16.3021 73.2655C15.7863 72.9621 15.1395 72.9944 14.6564 73.3475L15.2466 74.1548C15.4076 74.0371 15.6232 74.0263 15.7952 74.1275L16.3021 73.2655ZM16.6384 73.5176C16.5147 73.4164 16.4102 73.329 16.3021 73.2655L15.7952 74.1275C15.8202 74.1422 15.8534 74.1674 16.0051 74.2916L16.6384 73.5176ZM17.0353 73.826C16.9986 73.8078 16.9258 73.7528 16.6384 73.5176L16.0051 74.2916C16.2377 74.4819 16.4249 74.6396 16.5914 74.7221L17.0353 73.826ZM17.731 73.5378C17.6342 73.8247 17.3066 73.9604 17.0353 73.826L16.5914 74.7221C17.4053 75.1252 18.388 74.7182 18.6785 73.8576L17.731 73.5378ZM17.7936 73.0393C17.7566 73.4086 17.7441 73.499 17.731 73.5378L18.6785 73.8576C18.7379 73.6815 18.7587 73.4377 18.7886 73.1388L17.7936 73.0393ZM17.853 72.6235C17.8215 72.7449 17.8095 72.8804 17.7936 73.0393L18.7886 73.1388C18.8081 72.9439 18.8137 72.9026 18.821 72.8745L17.853 72.6235ZM19.0749 71.5178C18.4834 71.6096 18.0032 72.0442 17.853 72.6235L18.821 72.8745C18.8711 72.6814 19.0311 72.5365 19.2283 72.5059L19.0749 71.5178ZM19.4945 71.5C19.3348 71.5 19.1987 71.4985 19.0749 71.5178L19.2283 72.5059C19.2569 72.5015 19.2986 72.5 19.4945 72.5V71.5ZM20.5054 71.5H19.4945V72.5H20.5054V71.5ZM20.9252 71.5178C20.8013 71.4985 20.6651 71.5 20.5054 71.5V72.5C20.7014 72.5 20.7431 72.5015 20.7718 72.5059L20.9252 71.5178ZM22.147 72.6234C21.9967 72.0442 21.5166 71.6096 20.9252 71.5178L20.7718 72.5059C20.9689 72.5365 21.1289 72.6814 21.179 72.8745L22.147 72.6234ZM22.7 80C22.7 81.4912 21.4912 82.7 20 82.7V83.7C22.0435 83.7 23.7 82.0435 23.7 80H22.7ZM20 77.3C21.4912 77.3 22.7 78.5088 22.7 80H23.7C23.7 77.9565 22.0435 76.3 20 76.3V77.3ZM17.3 80C17.3 78.5088 18.5088 77.3 20 77.3V76.3C17.9565 76.3 16.3 77.9565 16.3 80H17.3ZM20 82.7C18.5088 82.7 17.3 81.4912 17.3 80H16.3C16.3 82.0435 17.9565 83.7 20 83.7V82.7Z" fill="white"/>
<rect x="38.5" y="38.5" width="23" height="23" rx="1.5" stroke="white"/>
<path d="M42.1183 47.6364L42.9983 49.1236H43.0324L43.9166 47.6364H44.9585L43.6269 49.8182L44.9884 52H43.9273L43.0324 50.5107H42.9983L42.1034 52H41.0466L42.4124 49.8182L41.0722 47.6364H42.1183ZM46.931 52V47.6364H49.8714V48.397H47.8536V49.4368H49.7201V50.1974H47.8536V51.2393H49.8799V52H46.931ZM54.2547 47.6364V52H53.4578L51.5594 49.2536H51.5274V52H50.6048V47.6364H51.4145L53.298 50.3807H53.3364V47.6364H54.2547ZM55.7691 52H54.7805L56.2868 47.6364H57.4758L58.98 52H57.9914L56.8983 48.6335H56.8643L55.7691 52ZM55.7073 50.2848H58.0425V51.005H55.7073V50.2848Z" fill="white"/>
</svg>
